<svg id="Layer_2" data-name="Layer 2" xmlns="http://www.w3.org/2000/svg" viewBox="0 0 1800 1800"><defs><style>.cls-1{fill:#fff;}</style></defs><path d="M351.71,199.64V1600H859.35s261,16.2,426.56-183.6,163.8-466.2,162-504,10.8-342-162-522-345.2-190.8-385-190.8Z"/><path class="cls-1" d="M523.3,454.3V557.8h538.5L946.9,683.5,741.4,921.4l-273,315.08V1345.3h744.9l.14-125.47s-5.88,2.21-4.88,13.36,0-.41,0-.41.63-14.16,0-14.16-8-8-8-8h-9.77s-9-9.37-9.6-9.37-13.65-.45-15.67-.07-6.75.07-9.53,1.57-3.22,1.65-7.42,2.18-4.8-.3-8.1.3-4.43.07-7.35.37-1.57-5.25-6.67-6.67-8.33-4-12.38-3.5-9.45.87-12.22,2.22A63.31,63.31,0,0,1,1091,1201c-3.6.9-88.73-9.68-88.73-9.68l-26-5.77-16.7-10.28,2.9-1.8a25.77,25.77,0,0,0,5,.08c1.13-.3,2.18-.53,2.18-1.28a23.39,23.39,0,0,0-.83-3.45,58.78,58.78,0,0,0-4.65-4.2c-.75-.37-10-5.32-10-5.32a2.58,2.58,0,0,0-1.35,1.5,19.81,19.81,0,0,0,.22,5.17c.23.9,1.2,1.58,1.8,2.18s1.28.23,1.13,1-1.65,1.72-1.88,2.4-1.18.76-.3,2,3.53.3,3.53.3l4.8,7.13-3.38,2c-1.5.9-3.67,1.88-4,2.4s-2.85,6.23-2.85,6.23-2.4,2-.9,7.8,2,5.85,2,5.85l-.75,1.65a27.21,27.21,0,0,0,.75,10.27c1.5,5,0,11.67,0,11.67l-1.93,2.59v-28l-2.12-2.1v-15.23h-5.85v-9.3h-10L932,1175.8s3-6.3,3-10.8h-8.9v-14.63s4.82-3.45,4.82-7.42-6.87-6.86-6.87-6.86v-13.77h-1.38V1101H919.9v20.85H918v14.4s-5.93,3.3-5.93,7.2,3.9,5.78,3.9,5.78v15.52h-8.64a15.59,15.59,0,0,0,2.57,9v4H900v18.07H869v-9.07h-3v-18.6h-4V1158h-20v9.67h-4.2v19.2H834v14.1H817.15v-21H808v-5.17H782.88v5h-9.6v23h-4.35v-22.73H759v-5h-25v4.87h-10.2v22.13h-5.33v-3.08h-3.74v-1.12h-6.31v-.83h-2.69v-1h-5.26V1195h-4.35v-.9H694v7.65h-2.77v17.4h-5v-9.75h-8.1v-6.75l-8.55-4.58-6.45,3.6v14H657.7v-4.2H646.37v-5L1213.44,559.6V454.3Z"/><rect x="637.15" y="1214.95" width="2.85" height="3.15"/><rect x="641.5" y="1214.95" width="2.85" height="3.15"/><rect x="646.07" y="1214.95" width="2.85" height="3.15"/><rect x="650.57" y="1214.95" width="2.85" height="3.15"/><rect x="637.15" y="1219" width="2.85" height="3.15"/><rect x="641.5" y="1219" width="2.85" height="3.15"/><rect x="646.07" y="1219" width="2.85" height="3.15"/><rect x="650.57" y="1219" width="2.85" height="3.15"/><rect x="650.57" y="1223.05" width="2.85" height="3.15"/><rect x="646.07" y="1223.05" width="2.85" height="3.15"/><rect x="641.5" y="1223.05" width="2.85" height="3.15"/><rect x="637.15" y="1223.05" width="2.85" height="3.15"/><rect x="632.12" y="1223.05" width="2.85" height="3.15"/><rect x="650.72" y="1226.88" width="2.85" height="3.15"/><rect x="646.22" y="1226.88" width="2.85" height="3.15"/><rect x="641.65" y="1226.88" width="2.85" height="3.15"/><rect x="637.3" y="1226.88" width="2.85" height="3.15"/><rect x="632.27" y="1226.88" width="2.85" height="3.15"/><rect x="650.72" y="1230.7" width="2.85" height="3.15"/><rect x="646.22" y="1230.7" width="2.85" height="3.15"/><rect x="641.65" y="1230.7" width="2.85" height="3.15"/><rect x="637.3" y="1230.7" width="2.85" height="3.15"/><rect x="632.27" y="1230.7" width="2.85" height="3.15"/><rect x="650.87" y="1234.9" width="2.85" height="3.15"/><rect x="646.37" y="1234.9" width="2.85" height="3.15"/><rect x="641.8" y="1234.9" width="2.85" height="3.15"/><rect x="637.45" y="1234.9" width="2.85" height="3.15"/><rect x="694.75" y="1203.4" width="2.85" height="3.15"/><rect x="699.1" y="1203.4" width="2.85" height="3.15"/><rect x="703.67" y="1203.4" width="2.85" height="3.15"/><rect x="708.17" y="1203.4" width="2.85" height="3.15"/><rect x="694.75" y="1207.45" width="2.85" height="3.15"/><rect x="699.1" y="1207.45" width="2.85" height="3.15"/><rect x="703.67" y="1207.45" width="2.85" height="3.15"/><rect x="708.17" y="1207.45" width="2.85" height="3.15"/><rect x="708.17" y="1211.5" width="2.85" height="3.15"/><rect x="703.67" y="1211.5" width="2.85" height="3.15"/><rect x="699.1" y="1211.5" width="2.85" height="3.15"/><rect x="694.75" y="1211.5" width="2.85" height="3.15"/><rect x="708.32" y="1215.33" width="2.85" height="3.15"/><rect x="703.82" y="1215.33" width="2.85" height="3.15"/><rect x="699.25" y="1215.33" width="2.85" height="3.15"/><rect x="694.9" y="1215.33" width="2.85" height="3.15"/><rect x="708.32" y="1219.15" width="2.85" height="3.15"/><rect x="703.82" y="1219.15" width="2.85" height="3.15"/><rect x="699.25" y="1219.15" width="2.85" height="3.15"/><rect x="694.9" y="1219.15" width="2.85" height="3.15"/><rect x="708.47" y="1223.35" width="2.85" height="3.15"/><rect x="703.97" y="1223.35" width="2.85" height="3.15"/><rect x="699.4" y="1223.35" width="2.85" height="3.15"/><rect x="695.05" y="1223.35" width="2.85" height="3.15"/><rect x="708.47" y="1227.55" width="2.85" height="3.15"/><rect x="703.97" y="1227.55" width="2.85" height="3.15"/><rect x="699.4" y="1227.55" width="2.85" height="3.15"/><rect x="695.05" y="1227.55" width="2.85" height="3.15"/><rect x="708.47" y="1231.23" width="2.85" height="3.15"/><rect x="703.97" y="1231.23" width="2.85" height="3.15"/><rect x="699.4" y="1231.23" width="2.85" height="3.15"/><rect x="695.05" y="1231.23" width="2.85" height="3.15"/><rect x="708.47" y="1234.9" width="2.85" height="2.17"/><rect x="703.97" y="1234.9" width="2.85" height="2.17"/><rect x="712.6" y="1203.4" width="2.85" height="3.15"/><rect x="717.1" y="1203.4" width="2.85" height="3.15"/><rect x="712.6" y="1207.45" width="2.85" height="3.15"/><rect x="717.1" y="1207.45" width="2.85" height="3.15"/><rect x="717.1" y="1211.5" width="2.85" height="3.15"/><rect x="712.6" y="1211.5" width="2.85" height="3.15"/><rect x="717.25" y="1215.33" width="2.85" height="3.15"/><rect x="712.75" y="1215.33" width="2.85" height="3.15"/><rect x="717.25" y="1219.15" width="2.85" height="3.15"/><rect x="712.75" y="1219.15" width="2.85" height="3.15"/><rect x="717.4" y="1223.35" width="2.85" height="3.15"/><rect x="712.9" y="1223.35" width="2.85" height="3.15"/><rect x="717.4" y="1227.55" width="2.85" height="3.15"/><rect x="712.9" y="1227.55" width="2.85" height="3.15"/><rect x="717.4" y="1231.23" width="2.85" height="3.15"/><rect x="712.9" y="1231.23" width="2.85" height="3.15"/><rect x="717.4" y="1234.9" width="2.85" height="2.17"/><rect x="712.9" y="1234.9" width="2.85" height="2.17"/><rect x="699.4" y="1234.9" width="2.85" height="2.17"/><rect x="695.05" y="1234.9" width="2.85" height="2.17"/><rect x="632.42" y="1234.9" width="2.85" height="3.15"/><polygon points="634.98 1218.7 634.98 1222.15 632.13 1222.15 634.98 1218.7"/><rect x="728.95" y="1184.72" width="3.15" height="8.1"/><rect x="737.35" y="1184.72" width="3.15" height="8.1"/><rect x="745.23" y="1184.72" width="3.15" height="8.1"/><rect x="753.03" y="1184.72" width="3.15" height="8.1"/><rect x="761.88" y="1184.72" width="3.15" height="8.1"/><rect x="728.95" y="1195.82" width="3.15" height="8.1"/><rect x="737.35" y="1195.82" width="3.15" height="8.1"/><rect x="745.23" y="1195.82" width="3.15" height="8.1"/><rect x="753.03" y="1195.82" width="3.15" height="8.1"/><rect x="761.88" y="1195.82" width="3.15" height="8.1"/><rect x="728.95" y="1206.92" width="3.15" height="8.1"/><rect x="737.35" y="1206.92" width="3.15" height="8.1"/><rect x="745.23" y="1206.92" width="3.15" height="8.1"/><rect x="753.03" y="1206.92" width="3.15" height="8.1"/><rect x="761.88" y="1206.92" width="3.15" height="8.1"/><rect x="728.95" y="1218.02" width="3.15" height="8.1"/><rect x="737.35" y="1218.02" width="3.15" height="8.1"/><rect x="745.23" y="1218.02" width="3.15" height="8.1"/><rect x="753.03" y="1218.02" width="3.15" height="8.1"/><rect x="761.88" y="1218.02" width="3.15" height="8.1"/><rect x="728.95" y="1229.12" width="3.15" height="8.1"/><rect x="737.35" y="1229.12" width="3.15" height="8.1"/><rect x="745.23" y="1229.12" width="3.15" height="8.1"/><rect x="753.03" y="1229.12" width="3.15" height="8.1"/><rect x="761.88" y="1229.12" width="3.15" height="8.1"/><rect x="777.55" y="1184.72" width="3.15" height="8.1"/><rect x="785.95" y="1184.72" width="3.15" height="8.1"/><rect x="793.83" y="1184.72" width="3.15" height="8.1"/><rect x="801.63" y="1184.72" width="3.15" height="8.1"/><rect x="810.48" y="1184.72" width="3.15" height="8.1"/><rect x="777.55" y="1195.82" width="3.15" height="8.1"/><rect x="785.95" y="1195.82" width="3.15" height="8.1"/><rect x="793.83" y="1195.82" width="3.15" height="8.1"/><rect x="801.63" y="1195.82" width="3.15" height="8.1"/><rect x="810.48" y="1195.82" width="3.15" height="8.1"/><rect x="777.55" y="1206.92" width="3.15" height="8.1"/><rect x="785.95" y="1206.92" width="3.15" height="8.1"/><rect x="793.83" y="1206.92" width="3.15" height="8.1"/><rect x="801.63" y="1206.92" width="3.15" height="8.1"/><rect x="777.55" y="1218.02" width="3.15" height="8.1"/><rect x="785.95" y="1218.02" width="3.15" height="8.1"/><rect x="793.83" y="1218.02" width="3.15" height="8.1"/><rect x="801.63" y="1218.02" width="3.15" height="8.1"/><rect x="777.55" y="1229.12" width="3.15" height="8.1"/><rect x="785.95" y="1229.12" width="3.15" height="8.1"/><rect x="793.83" y="1229.12" width="3.15" height="8.1"/><rect x="801.63" y="1229.12" width="3.15" height="8.1"/><rect x="811.08" y="1205.95" width="3.9" height="5.03"/><rect x="820.08" y="1205.95" width="3.9" height="5.03"/><rect x="828.93" y="1205.95" width="3.9" height="5.03"/><rect x="828.93" y="1214.5" width="3.9" height="5.03"/><rect x="820.08" y="1214.5" width="3.9" height="5.03"/><rect x="811.08" y="1214.5" width="3.9" height="5.03"/><rect x="811.08" y="1223.35" width="3.9" height="5.03"/><rect x="820.08" y="1223.35" width="3.9" height="5.03"/><rect x="828.93" y="1223.35" width="3.9" height="5.03"/><rect x="828.93" y="1231.9" width="3.9" height="5.03"/><rect x="820.08" y="1231.9" width="3.9" height="5.03"/><rect x="811.08" y="1231.9" width="3.9" height="5.03"/><rect x="840.93" y="1183.97" width="1.13" height="3.98"/><rect x="845.05" y="1183.97" width="1.13" height="3.98"/><rect x="849.18" y="1183.97" width="1.13" height="3.98"/><rect x="853.3" y="1183.97" width="1.13" height="3.98"/><rect x="857.88" y="1183.97" width="1.13" height="3.98"/><rect x="862" y="1183.97" width="1.13" height="3.98"/><rect x="839.13" y="1192.15" width="3.9" height="4.73"/><rect x="845.05" y="1192.15" width="3.9" height="4.73"/><rect x="850.9" y="1192.15" width="3.9" height="4.73"/><rect x="856.9" y="1192.15" width="3.9" height="4.73"/><rect x="862.83" y="1192.15" width="3.9" height="4.73"/><rect x="837.85" y="1200.92" width="3.98" height="3.98"/><rect x="844.19" y="1200.92" width="3.98" height="3.98"/><rect x="849.89" y="1200.92" width="3.98" height="3.97"/><rect x="855.89" y="1200.92" width="3.98" height="3.97"/><rect x="862" y="1200.92" width="3.98" height="3.97"/><rect x="867.93" y="1200.92" width="3.98" height="3.98"/><rect x="874.26" y="1200.92" width="3.98" height="3.98"/><rect x="879.96" y="1200.92" width="3.98" height="3.97"/><rect x="885.96" y="1200.92" width="3.98" height="3.97"/><rect x="892.08" y="1200.92" width="3.98" height="3.97"/><rect x="837.85" y="1207" width="3.98" height="3.98"/><rect x="844.19" y="1207" width="3.98" height="3.98"/><rect x="849.89" y="1207" width="3.98" height="3.97"/><rect x="855.89" y="1207" width="3.98" height="3.97"/><rect x="862" y="1207" width="3.98" height="3.97"/><rect x="867.93" y="1207" width="3.98" height="3.98"/><rect x="874.26" y="1207" width="3.98" height="3.98"/><rect x="879.96" y="1207" width="3.98" height="3.97"/><rect x="885.96" y="1207" width="3.98" height="3.97"/><rect x="892.08" y="1207" width="3.98" height="3.97"/><rect x="837.85" y="1213.3" width="3.98" height="3.98"/><rect x="844.19" y="1213.3" width="3.98" height="3.98"/><rect x="849.89" y="1213.3" width="3.98" height="3.97"/><rect x="855.89" y="1213.3" width="3.98" height="3.97"/><rect x="862" y="1213.3" width="3.98" height="3.97"/><rect x="867.93" y="1213.3" width="3.98" height="3.98"/><rect x="874.26" y="1213.3" width="3.98" height="3.98"/><rect x="879.96" y="1213.3" width="3.98" height="3.97"/><rect x="885.96" y="1213.3" width="3.98" height="3.97"/><rect x="892.08" y="1213.3" width="3.98" height="3.97"/><rect x="837.85" y="1219.37" width="3.98" height="3.98"/><rect x="844.19" y="1219.37" width="3.98" height="3.98"/><rect x="849.89" y="1219.37" width="3.98" height="3.97"/><rect x="855.89" y="1219.37" width="3.98" height="3.97"/><rect x="862" y="1219.37" width="3.98" height="3.97"/><rect x="867.93" y="1219.37" width="3.98" height="3.98"/><rect x="874.26" y="1219.37" width="3.98" height="3.98"/><rect x="879.96" y="1219.37" width="3.98" height="3.97"/><rect x="885.96" y="1219.37" width="3.98" height="3.97"/><rect x="892.08" y="1219.37" width="3.98" height="3.97"/><rect x="837.85" y="1225.45" width="3.98" height="3.98"/><rect x="844.19" y="1225.45" width="3.98" height="3.98"/><rect x="849.89" y="1225.45" width="3.98" height="3.97"/><rect x="855.89" y="1225.45" width="3.98" height="3.97"/><rect x="862" y="1225.45" width="3.98" height="3.97"/><rect x="867.93" y="1225.45" width="3.98" height="3.98"/><rect x="874.26" y="1225.45" width="3.98" height="3.98"/><rect x="879.96" y="1225.45" width="3.98" height="3.97"/><rect x="885.96" y="1225.45" width="3.98" height="3.97"/><rect x="892.08" y="1225.45" width="3.98" height="3.97"/><rect x="837.85" y="1231.53" width="3.98" height="3.98"/><rect x="844.19" y="1231.53" width="3.98" height="3.98"/><rect x="849.89" y="1231.53" width="3.98" height="3.97"/><rect x="855.89" y="1231.53" width="3.98" height="3.97"/><rect x="862" y="1231.53" width="3.98" height="3.97"/><rect x="867.93" y="1231.53" width="3.98" height="3.98"/><rect x="874.26" y="1231.53" width="3.98" height="3.98"/><rect x="879.96" y="1231.53" width="3.98" height="3.97"/><rect x="885.96" y="1231.53" width="3.98" height="3.97"/><rect x="892.08" y="1231.53" width="3.98" height="3.97"/><rect x="902.05" y="1181.05" width="1.95" height="4.05"/><rect x="906.38" y="1181.05" width="1.95" height="4.05"/><rect x="909.93" y="1181.05" width="1.95" height="4.05"/><rect x="913.98" y="1181.05" width="1.95" height="4.05"/><rect x="918.03" y="1181.05" width="1.95" height="4.05"/><rect x="921.96" y="1181.05" width="1.95" height="4.05"/><rect x="926.11" y="1181.05" width="1.95" height="4.05"/><rect x="930.04" y="1181.05" width="1.95" height="4.05"/><rect x="934.04" y="1181.05" width="1.95" height="4.05"/><rect x="938.03" y="1181.05" width="1.95" height="4.05"/><rect x="902.05" y="1187.97" width="1.95" height="4.05"/><rect x="906.38" y="1187.97" width="1.95" height="4.05"/><rect x="909.93" y="1187.97" width="1.95" height="4.05"/><rect x="913.98" y="1187.97" width="1.95" height="4.05"/><rect x="918.03" y="1187.97" width="1.95" height="4.05"/><rect x="921.96" y="1187.97" width="1.95" height="4.05"/><rect x="926.11" y="1187.97" width="1.95" height="4.05"/><rect x="930.04" y="1187.97" width="1.95" height="4.05"/><rect x="934.04" y="1187.97" width="1.95" height="4.05"/><rect x="938.03" y="1187.97" width="1.95" height="4.05"/><rect x="902.05" y="1194.89" width="1.95" height="4.05"/><rect x="906.38" y="1194.89" width="1.95" height="4.05"/><rect x="909.93" y="1194.89" width="1.95" height="4.05"/><rect x="913.98" y="1194.89" width="1.95" height="4.05"/><rect x="918.03" y="1194.89" width="1.95" height="4.05"/><rect x="921.96" y="1194.89" width="1.95" height="4.05"/><rect x="926.11" y="1194.89" width="1.95" height="4.05"/><rect x="930.04" y="1194.89" width="1.95" height="4.05"/><rect x="934.04" y="1194.89" width="1.95" height="4.05"/><rect x="938.03" y="1194.89" width="1.95" height="4.05"/><rect x="902.05" y="1201.81" width="1.95" height="4.05"/><rect x="906.38" y="1201.81" width="1.95" height="4.05"/><rect x="909.93" y="1201.81" width="1.95" height="4.05"/><rect x="913.98" y="1201.81" width="1.95" height="4.05"/><rect x="918.03" y="1201.81" width="1.95" height="4.05"/><rect x="921.96" y="1201.81" width="1.95" height="4.05"/><rect x="926.11" y="1201.81" width="1.95" height="4.05"/><rect x="930.04" y="1201.81" width="1.95" height="4.05"/><rect x="934.04" y="1201.81" width="1.95" height="4.05"/><rect x="938.03" y="1201.81" width="1.95" height="4.05"/><rect x="902.05" y="1208.95" width="1.95" height="4.05"/><rect x="906.38" y="1208.95" width="1.95" height="4.05"/><rect x="909.93" y="1208.95" width="1.95" height="4.05"/><rect x="913.98" y="1208.95" width="1.95" height="4.05"/><rect x="918.03" y="1208.95" width="1.95" height="4.05"/><rect x="921.96" y="1208.95" width="1.95" height="4.05"/><rect x="926.11" y="1208.95" width="1.95" height="4.05"/><rect x="930.04" y="1208.95" width="1.95" height="4.05"/><rect x="934.04" y="1208.95" width="1.95" height="4.05"/><rect x="938.03" y="1208.95" width="1.95" height="4.05"/><path d="M902.05,1216h2.87v7.93a16.15,16.15,0,0,1-2.87,0C902.22,1223.74,902.05,1216,902.05,1216Z"/><path d="M909.93,1216h2.87v7.93a16.15,16.15,0,0,1-2.87,0C910.1,1223.74,909.93,1216,909.93,1216Z"/><path d="M915.93,1216h2.87v7.93a16.15,16.15,0,0,1-2.87,0C916.1,1223.74,915.93,1216,915.93,1216Z"/><path d="M923.81,1216h2.87v7.93a16.15,16.15,0,0,1-2.87,0C924,1223.74,923.81,1216,923.81,1216Z"/><path d="M930.05,1216h2.87v7.93a16.15,16.15,0,0,1-2.87,0C930.22,1223.74,930.05,1216,930.05,1216Z"/><path d="M937.93,1216h2.87v7.93a16.15,16.15,0,0,1-2.87,0C938.1,1223.74,937.93,1216,937.93,1216Z"/><rect x="919.98" y="1227.06" width="7.09" height="7.93"/><rect x="929.89" y="1227.06" width="7.09" height="7.93"/><rect x="939.8" y="1227.06" width="7.09" height="7.93"/><path d="M951.1,1231.84s7.82-1.06,11-.81c0,0,1.18-17.19.95-18s-.9-.62-1.29-.73-.56-.51-1.12,0a6.75,6.75,0,0,0-.74.73s-.78.84-.84,0-.06-1-.06-1.52-.16-.73.17-1,.73-.28.68-.68a1.09,1.09,0,0,0-.62-.84c-.34-.17-.34.28-.84,0s-1.8-.79-1.8-.79,1.68-1.35-.17-.33-2.48,1.23-2.59,1.46a7.66,7.66,0,0,1-.39.9,6.87,6.87,0,0,0-.45.78l-.9-.44a6,6,0,0,1-.29-1.19c0-.33-.73-.11.12-.73s.5-.28,1.07-.9a2.5,2.5,0,0,0,.61-.9c.17-.28-.11,0,.45-.56a4.49,4.49,0,0,0,.85-.9c.11-.17-.11-.34.28-.67s.23-.46.84-.85.85-.34.79-1,.34-.62-.17-1a5.33,5.33,0,0,0-.84-.57l-.68.57h-2.42s-.84-.4-.84-.57-.17-.28.28-.39a1.12,1.12,0,0,0,.73-.73c.06-.17-.45.06.17-.51s.68.23.68-.67,1-.85,0-.9a18.32,18.32,0,0,0-2,0v-1.58c0-.22-.51-.5-.62-.67a1.26,1.26,0,0,1,0-.9c.11-.28,1-.34,1.12-.51s-.16-.56.62-.56.79.06,1.24-.23.62-2.92,1.07-3.09-.06.23.84,0,1.24-.23,1.41-.51,1.24-.61,1.63-.73-.9-.79-1-1.29-.11-.84.22-1.07.62,0,.62-.56-.34-.9.06-1.24a1.81,1.81,0,0,1,1.24-.51c.73-.11.16-.33,1.18-.16s1.57.56,1.71,1-.53,1.3,0,1.41.48.73.82.11a11.14,11.14,0,0,0,.5-1c.34-.4.68-.4,1-.79s.5-.8.67-.74-.79-.07.45,0a7,7,0,0,1,2.48.74c1,.34,1.35.23,1.85.73s.34.79.68,1.24a11.39,11.39,0,0,0,1.12,1.18,2.65,2.65,0,0,1,.85,1.35c.22.73-.17.34.45,1.24s.9,1.91,1.18,2.3a3,3,0,0,1,.39,1.75c0,.56-2.19.95-2.53,1.29s-.56-.34-.34.73.12,1.13.68,1.58.5.22.9.84.73.06.79,1-.62,2.14-1,2.2-.84.39-1.46-.06a21.17,21.17,0,0,0-2.31-1.24l-1-.78s-1.07-.73-1.63-.12-.62.57-.68.9a6.58,6.58,0,0,0-.05.79s-.12.17.67.68.39,0,.79.5.9.45,1.18,1,.17.84-.17,1.41-.67.61-.9,1.12a2.15,2.15,0,0,0-.22,1.39c0,.75.62.69.22,1.54s-1.35.78-1.57,1.34.11,1.75,0,2.48-.51,1.24-.62,2.08-.73,15.25-.73,15.25,9.11.45,9.61.25-.56-1.72-.56-1.89-.05-.67-.05-.67l-.4-.51,0-.9a2.18,2.18,0,0,1-1,0,14.11,14.11,0,0,0-2.19,0l.33-1.35a5.93,5.93,0,0,0,1.3.23c.78,0,1.46-.56,1.8-.62s.69-.34,1.13-.45.44-.17.89-.51.06-.17.56-.62.68-1.18,1-1.35.84-.33.33-.73-1.35-.62-1.51-.84a45.91,45.91,0,0,1,0-4.84H980s-.06.85.33.79.9-.11.9-.11-.5-1,0-1h2.2s-.4,4.73-.34,4.89.39.23.67.23.68.06.68-.28-.39-.62,0-.79.79-1,.79-1,.56-.45.78-.61.23-.45.74-.51.84-.06,1.4-.11a8.61,8.61,0,0,0,1-.17l-1.29-.4,1.29-.5.4-.51s-.4.23,0-.34,0-.28.39-.56.11-.28.68-.34-1.24,0,.56,0,2.31-.17,2.59.22a2.52,2.52,0,0,1,.39,1.35c0,.4.28.68,0,1.35a3.38,3.38,0,0,1-1.29,1.24s-.17-.06-.51.28-.79.85-.79.85c.34.28-.11.22,1,.28a10.61,10.61,0,0,1,1.7.17,3.93,3.93,0,0,1,1,.39,6.7,6.7,0,0,1,.45,1.18c0,.23-1,.34-1,.34s-.34.05-.34.34-1,.73-1,.73a2.75,2.75,0,0,1-.06,1.23c-.17,1,.9,1.13.9,1.13a4,4,0,0,1,.45.62c.12.22.23.22.79.67a2.63,2.63,0,0,1,.9,1.07,6.75,6.75,0,0,1,0,1.13,1.75,1.75,0,0,1-.56,1.07,4.84,4.84,0,0,1,.17,1c0,.39-.57.67-1,1s-.17.56-.17.56l1.91.68s20,3.37,23.46,3.26v-3a4.61,4.61,0,0,1-.67.39,3.94,3.94,0,0,1-.85,0l-.45-.5s0,.22-.39,0l-.39-.23-1-.17s-.05-.11-.5-.11-1.13-.06-1.24-.22-.56-.34-.23-.85a3.94,3.94,0,0,1,.68-.9c.39-.39.28-.11.79-.79s1.18-.45.5-.67-.9-.06-1.29-.34-1-.45-1-1-.45-.4.17-.85a5.06,5.06,0,0,1,.9-.62,4.6,4.6,0,0,0,1.24-.62c.45-.33.67-.84,1-.9s.9-.16.9-.16a4.43,4.43,0,0,0,0-.9,2.83,2.83,0,0,1,.06-1c0-.17,1-.79.17-.73a2.61,2.61,0,0,0-1.75.62l-.33.33s-.4-.5-.51-.67l-.73-1.07s-.34-.22-.9-.51l-.56-.28s-.68,0-.85-.56a4.37,4.37,0,0,1-.22-1.18c0-.17-.28-.17.28-.39a2.06,2.06,0,0,0,.95-.57c.45-.39.4-.78,1.13-1a5.51,5.51,0,0,0,1.29-.45c.57-.28,2.31-.11.57-.28s-2.14.28-2.59-.17-1.58-.84-1.58-1.52a2.2,2.2,0,0,1,.12-.9s-.34.45,1.18-1.4.33-1.16,1.8-2.18,1.46-1.09,2.19-1.54.73-.22,1.24-.73.45-.5.84-.62a8.14,8.14,0,0,1,2.65-.62,11.05,11.05,0,0,1,3.31.85c.45.39.34.62,1.41,1.24a38.72,38.72,0,0,1,3.38,1.91,1.55,1.55,0,0,1-.06,1.69c-.45.56-.39.28-1.24,1s-1.18.79-1.18,1-.79-.34.39.39,1.3.73,1.64.79l2,.34s.34.56.56,1a3.91,3.91,0,0,1,.79,1.47,5.87,5.87,0,0,1-.62,2.64c-.22.28-.5.84-1.12,1.74s-.79.62-2.31,1.24-1.52.84-2.25.39-1.18-.78-1.35-.73-.62.06-.34.57a5.62,5.62,0,0,0,2,1.29c.22.06-.17-.51.45.34s.67.84.67,1.12-.17.4,0,.68.4.33.57.78-.79.85-.51,1.24.39.45,1.07.9.62.17.79.79a1.41,1.41,0,0,1-.34,1.57c-.51.51-1.46.62-1.58.85s.23.73-1.57,1a4.66,4.66,0,0,1-3-.39c-.22-.17-.84-.79-.84-.79l-1.47-1s0,.79,0,1.07v2.76s9.56.33,14.85-.4,15.3-1.46,17.21-1.4c0,0,.34-1.3.34-1.47a2.62,2.62,0,0,1,.28-.67v-.9a2.87,2.87,0,0,0-.51-.56,1.74,1.74,0,0,1-.56-.79,10.41,10.41,0,0,0-.9-1.8c-.34-.45.79-.23-.73-1.18s-1.69-1-1.91-1-1.07.23-1.35,0-.73-.33-.4-.73-.11.17.57-.62a3.52,3.52,0,0,0,.78-1.4c.23-.45-.28-.51.57-.79s1.74-1.12,1.8-.22-.62.56,0,.9a1.86,1.86,0,0,0,1.18.33c.51,0,1-.17,1.18.17s.74.85,1,.85a6.67,6.67,0,0,1,1.57,0c1.75.11,3.83,0,4.22,0s2.93-.17,4-.17,2-.23,2.14.39a16.73,16.73,0,0,1,0,3.32c-.11.73.17,2.42.09,3s.11,1.41,0,2.08a6.49,6.49,0,0,0,0,2.25c.15.23,0,1.07,0,1.07h2v-9.62l-1-.56s-.11-.62.23-.79,3.57-4.75,4.16-4.16a1.32,1.32,0,0,0,1.91.06c.62-.51,1.41-.85,1.58-1.13a9.28,9.28,0,0,1,.84-1l3-.67a7.36,7.36,0,0,1,2.08,1.07c1.24.84,21.49,8,23,8.44s.79.56.79.56l-.11,6.92s.51-5.63.67-6,2.14-.45,2.31-.45.79-.11,1.13-.11,1,.06,1.12.06h2.64v-6.7s-.67-.95-.9-1.29-.33-.22-.39-.56a5.21,5.21,0,0,0-.22-1c-.12-.28-.17-.39-.62-.28a2.2,2.2,0,0,0-1.18.9l-.12.28a2.14,2.14,0,0,1-.67-1.29,6.17,6.17,0,0,1,.22-1.18c0-.28.28-.73-.11-.79a9.66,9.66,0,0,0-1.35,0s-.06-.51-.79.39-.45,1.18-1.63,1.3-1.29.67-1.52-.06l-.45-1.46s0-.23.45-1,.85-.9,1.07-1.35a4.24,4.24,0,0,1,.85-1.35,4.11,4.11,0,0,0,1.23-1c.4-.51,2.31-.17.4-1.24l-1.92-1.07-1.12-1.18s.11-.56-.11-.62a3,3,0,0,1-.73-.56l-.4-1.47s-.39-.22,0-.5-.22,0,.68-.45a6.22,6.22,0,0,1,1.52-.56l.56-1.07.67-1.92a5.12,5.12,0,0,0,1.63,0c.34-.16.9-.22.68-.9s-.79-.84-.45-1.4a4.3,4.3,0,0,1,1.12-1.07l.68-.17s.73-.39,1.07-.17,1.07.62,1.18.85.84,1,1.18.56a7.53,7.53,0,0,0,.73-1.18l1.75-.23s1.4.56,1.46.85,2.25.78,2.42,1.18.84.39.67,1.29-.4.45,0,1.35a15.68,15.68,0,0,0,1,1.69c.23.39.85.79.23,1.35s-1,.39-1,.67a2,2,0,0,0-.17.9,11.41,11.41,0,0,0,.62,1.92c.11.22,0-.17.11.22s.51.73.39,1.18-.78.62-1.57.79-.73.39-1.8-.06-1.13-.73-1.8-.62a2.56,2.56,0,0,0-1.13.51s1.58,1,1.75,1.13.67.45.45.84-.9,1-1.07,1.24-.23-.12-.23.78a7.49,7.49,0,0,0,.06,1.75c.11.34-.06.56-.39,1.18a3.45,3.45,0,0,0-.4,1.46,1.81,1.81,0,0,1,0,1.07,4.82,4.82,0,0,1-.85,1.07c-.17.22,0,7.2,0,7.2a8.55,8.55,0,0,1,2.14-.06,11.92,11.92,0,0,0,2.31.17s1.06-.62,1.57-.45,2.25,0,1.74-.79-.11-.9-.9-1.18-1-.11-1.18-.33-.73-.34-.9-.51-.78.17.12-.45,1.29-.62,1.29-1-.84-1.12-.9-1.29a4.37,4.37,0,0,0-.51-.68l-.84-1.18s-.56-.9-.39-1.12-.79.28.73-.56.73-.17,1.52-.85a8.24,8.24,0,0,0,1.12-1.12l.28-1.86s.34-.9.9-.9,2-.22,1.91.34.29,1.07.45.73a6.45,6.45,0,0,1,.51-.79s1.58.06,1.58.51.28.45.78.84,1.35.11,1.52.68.17,1.63.34,1.91.62.67.51,1.07-.68.79-.74,1,.62,1.13.4,1.86-.34,1.07-1.35,1.07-.85-.34-1.41-.34-.34.56-.17.84-.67,1.24.4,1.35a6.75,6.75,0,0,0,2.36.06,9.49,9.49,0,0,1,2.31,0V1224l-.74-1.35s-.05-.17.4-.9-.06-1.07.34-1.41a2.3,2.3,0,0,0,.61-1.57,9,9,0,0,1,0-2.08c.17-.23.62.17.74-.62s-.12-1.86,0-2.25a31.67,31.67,0,0,0,0-3.19h2.5l1.57,1.56a5.69,5.69,0,0,1,1.07.67c.28.28.62.4.68.56a3.55,3.55,0,0,1,0,.74.81.81,0,0,0,.33.11c.28,0,7.65,0,7.65,0l1.35-1.13s-.05-.28.45-.56a2,2,0,0,1,1.58-.11c.17.17.67.56.67.84a5.43,5.43,0,0,0,.28,1.75c.17,0,4.39,0,4.39,0l.34-1.35.79-.23s-.51-.17.45-.22,1.4-.12,1.74-.12,1,.12,1.29-.11,1.41.28.29-.22a1.66,1.66,0,0,1-1.07-1.52,4.53,4.53,0,0,1-.4-1.24c0-.39-.17-.34,0-.68s1.63-.56,1.63-.56l.57-1.57a2.1,2.1,0,0,1,1.29-.06c.84.17,1.24-.84,1.24-.84a1.81,1.81,0,0,1,1-.34c.51,0,1.35-.11,1.35-.11l.62-1h5c.23,0,.51.84.51.84l1.52.06,3.88-.06.28,1.8.51.45.62.12c.22.33.67.22.95.5s0,.28.28.28a5.28,5.28,0,0,1,1.69.12,1.74,1.74,0,0,1,.39.78,1.28,1.28,0,0,0,0,.81c.17.49-.16.71,0,1.11s.27.56,0,.9-.16-.23-.21.33-.12,1.19-.12,1.35,1.3.17,1.3.34-.23.62.62.73,1-.17,1.12.12a1.85,1.85,0,0,0,.45.78c.34.4,1.07,1.35,1.24,1.52s-.17.45,0,.73a2.8,2.8,0,0,1,.39,1.07c.11.56-.67,1.91-.67,1.91a14.27,14.27,0,0,0-2.14.79c-.11.17.67,1.41.67,1.41v.9s.51.11.62-.06.34-.67.45-.84,11.53-8.1,11.53-8.1l8.67,8.66v8.94h.9v-3.54s2.32-6.13,3.38-8.32l1.5-1.5V1235h49.66s-28-81-81-81-222.63,20.12-226.67,27.1-5.41,7.32-5.63,14.35.9,7.81,1.8,8.43S951.1,1231.84,951.1,1231.84Z"/><path d="M980,1231.75v-1l6.75-.75s.15-.53.75,0a3.37,3.37,0,0,0,1.87.78,2.49,2.49,0,0,1,1,.3c.22.12.15.35,0,.72l-.16.37H987a13.64,13.64,0,0,0-1.8,0,27.3,27.3,0,0,1-3.67-.37Z"/><path d="M977,1229.2v.52l.82.3.37-.45v-.37H977Z"/><path d="M992.35,1230.62s-.07-.31,0,.41,1.5.78,1.5,0S992.35,1230.62,992.35,1230.62Z"/><path d="M986.35,1224l1.2.33s.45.61,0,.91-1,.37-1.2,1a10.41,10.41,0,0,0-.37,1.42c0,.3.14.23,0,.61s-.39.44-.76.44-.52.6-.74,0a3,3,0,0,1-.31-1.27c0-.45-.75-.82,0-.94s1.05-1.16,1.05-1.16a4,4,0,0,0,.58-.07C986.2,1225.15,986.35,1224,986.35,1224Z"/><path d="M990.47,1228.94c-.59-.27-1.57-.11-1.57-.71v-.61s-.9-.14-.45-.56a3.4,3.4,0,0,1,.95-.6c.33-.19,0,.64.33-.19s.35-1,.74-1.35a1.11,1.11,0,0,0,.38-.93,1.33,1.33,0,0,0-.38-1.09,20,20,0,0,0-1.72-1.35h-.43s1.24-1,2.15,0l.91,1s1-.08.94.22-.57.91-.49,1.58.68,1.88.49,2.06a7.28,7.28,0,0,1-1,.6l-.45.94s.38-.19,0,.38Z"/><path d="M1057,1234.45l.38-2.92a21.79,21.79,0,0,0,2.24,0,9.87,9.87,0,0,1,2.18,0,3.73,3.73,0,0,1,1.2.37l.75.3v.45a3.58,3.58,0,0,1,.45,1c0,.3.22.38,0,.75s-.38.45-.38.75.75.23,0,.3-.82-.3-1.35,0-.45-.13-1.2,0a4.06,4.06,0,0,1-2-.61Z"/><path d="M1065.25,1232.5l-.3,2.25v1.43h.9a14.69,14.69,0,0,1,.3-1.84S1065.85,1232.5,1065.25,1232.5Z"/><rect x="1078" y="1226.65" width="3.97" height="7.2"/><rect x="1109.05" y="1232.05" width="0.86" height="0.86"/><rect x="1109.05" y="1234.08" width="0.86" height="0.86"/><rect x="1111" y="1232.05" width="0.86" height="0.86"/><rect x="1111" y="1234.08" width="0.86" height="0.86"/><rect x="1116.12" y="1232.05" width="0.86" height="0.86"/><rect x="1116.12" y="1234.08" width="0.86" height="0.86"/><rect x="1118.07" y="1232.05" width="0.86" height="0.86"/><rect x="1118.07" y="1234.08" width="0.86" height="0.86"/><rect x="1123.21" y="1232.05" width="0.86" height="0.86"/><rect x="1123.21" y="1234.08" width="0.86" height="0.86"/><rect x="1125.16" y="1232.05" width="0.86" height="0.86"/><rect x="1125.16" y="1234.08" width="0.86" height="0.86"/><rect x="1157.93" y="1231.04" width="0.86" height="0.86"/><rect x="1157.93" y="1233.06" width="0.86" height="0.86"/><rect x="1159.88" y="1231.04" width="0.86" height="0.86"/><rect x="1159.88" y="1233.06" width="0.86" height="0.86"/><rect x="1165.02" y="1231.04" width="0.86" height="0.86"/><rect x="1165.02" y="1233.06" width="0.86" height="0.86"/><rect x="1166.97" y="1231.04" width="0.86" height="0.86"/><rect x="1166.97" y="1233.06" width="0.86" height="0.86"/><rect x="1174.47" y="1231.04" width="0.86" height="0.86"/><rect x="1174.47" y="1233.06" width="0.86" height="0.86"/><rect x="1176.42" y="1231.04" width="0.86" height="0.86"/><rect x="1176.42" y="1233.06" width="0.86" height="0.86"/><rect x="1181.56" y="1231.04" width="0.86" height="0.86"/><rect x="1181.56" y="1233.06" width="0.86" height="0.86"/><rect x="1183.51" y="1231.04" width="0.86" height="0.86"/><rect x="1183.51" y="1233.06" width="0.86" height="0.86"/><rect x="1136.72" y="1223.99" width="4.35" height="9.94"/><path d="M955.38,1181.05s-1.21-7-.46-8,2.1-2.4,2.55-3-.22-.52-.75-1.5-1.91-1.87-2-2.47a31.46,31.46,0,0,1,0-3.53l1.44-1.72s1.57-.3,1.5,0,.53,1.42.53,1.42v.9s1.5,1.5,1.73,1.8,1,.9,1.19,1.2.75,1.05.75,1.05-.22.15.53.45a14.19,14.19,0,0,0,2.92.23c.53.07.08.6,0,1s-.6,0-.07.38,1.87,1.52,2,1.66.83-.39.16.14a4.28,4.28,0,0,1-2.33,1c-.75,0-.83-.15-1.35,0s-4.5.23-5,.23-.67.6-1.35,1a12.16,12.16,0,0,1-1.2.6l-.82.23.45,1.72,5.4.53c.07,0,4.35-.6,5.17-.83s4.28-1.05,4.43-1.72a4.58,4.58,0,0,0,0-4c-1-2.1-2.1-5.47-4.13-7.2s-5-4.27-7-4.57-10.28-1.13-10.95-.08-1,5.63-.82,7.8.09,4.06,1.84,6.6,4.08,3.9,4.3,5.1A24.3,24.3,0,0,0,955.38,1181.05Z"/><polygon points="975.1 1171.6 955.9 1176.4 955.38 1181.05 966.55 1181.05 975.1 1171.6"/></svg>